<svg xmlns="http://www.w3.org/2000/svg" width="32" height="20" viewBox="0 0 32 20">
    <path fill="#fff" fill-rule="nonzero" d="M28.84 2.83h-8.002V.843h8.002V2.83zm-13.33 8.15c.517.8.775 1.771.775 2.911 0 1.18-.29 2.237-.883 3.17a5.498 5.498 0 0 1-1.405 1.562c-.633.486-1.382.82-2.243.997-.863.179-1.798.269-2.805.269H0V.019h9.596c2.42.039 4.134.74 5.147 2.116.607.844.908 1.857.908 3.034 0 1.215-.304 2.187-.918 2.925-.341.415-.845.791-1.513 1.131 1.011.37 1.778.953 2.29 1.756zM4.584 7.853h4.204c.864 0 1.563-.164 2.1-.492.538-.328.807-.91.807-1.747 0-.925-.355-1.538-1.068-1.833-.612-.206-1.395-.311-2.345-.311H4.583v4.383zm7.516 5.755c0-1.032-.422-1.745-1.264-2.128-.471-.218-1.136-.329-1.987-.337H4.583v5.295h4.199c.862 0 1.53-.113 2.012-.348.869-.433 1.305-1.258 1.305-2.482zm19.71-3.232c.096.65.14 1.593.122 2.826H21.568c.057 1.43.55 2.43 1.487 3.003.565.36 1.25.534 2.052.534.845 0 1.535-.213 2.065-.653.289-.233.544-.561.764-.976h3.799c-.1.845-.557 1.702-1.379 2.572-1.273 1.384-3.06 2.078-5.353 2.078-1.895 0-3.564-.585-5.014-1.751-1.444-1.17-2.17-3.069-2.17-5.702 0-2.47.651-4.36 1.958-5.675 1.312-1.318 3.006-1.974 5.092-1.974 1.238 0 2.353.222 3.347.666.992.445 1.812 1.145 2.457 2.108.584.847.96 1.827 1.135 2.944zm-3.74.37c-.07-.988-.4-1.737-.994-2.249-.59-.513-1.326-.77-2.206-.77-.956 0-1.695.275-2.22.816-.528.54-.857 1.274-.992 2.204h6.413z"/>
</svg>
