<svg xmlns="http://www.w3.org/2000/svg" width="177" height="52" viewBox="0 0 177 52">
    <defs>
        <linearGradient id="a" x1="100%" x2="0%" y1="50%" y2="50%">
            <stop offset="0%" stop-color="#16D550"/>
            <stop offset="100%" stop-color="#75E711"/>
        </linearGradient>
    </defs>
    <g fill="none" fill-rule="nonzero">
        <path fill="#47525B" d="M0 46V28.702h16.926v5.115H7.967V46H0zm18.729-17.298h7.967v2.108c.62-.62 1.385-1.137 2.294-1.55 1.343-.6 2.904-.899 4.68-.899h.249c3.224 0 5.61.899 7.16 2.697a7.25 7.25 0 0 1 1.458 2.697c.31 1.033.465 2.118.465 3.255v.527c0 1.075-.16 2.123-.48 3.147a7.82 7.82 0 0 1-1.504 2.743c-1.674 1.943-4.144 2.914-7.41 2.914h-.278c-1.736 0-3.255-.3-4.557-.899a7.539 7.539 0 0 1-2.077-1.364v7.781h-7.967V28.702zm15.934 8.587c0-.971-.269-1.798-.806-2.48-.703-.847-1.736-1.271-3.1-1.271h-.124c-1.385 0-2.428.424-3.131 1.271-.558.661-.837 1.478-.837 2.449v.186c0 1.013.279 1.84.837 2.48.703.806 1.746 1.209 3.13 1.209h.125c1.343 0 2.377-.413 3.1-1.24.537-.64.806-1.457.806-2.449v-.155zm34.384 3.069a4.903 4.903 0 0 1-.806 2.48c-.765 1.116-1.85 1.943-3.255 2.48-1.922.744-4.35 1.116-7.285 1.116h-1.364c-4.382 0-7.544-.992-9.486-2.976-1.488-1.488-2.232-3.451-2.232-5.89v-.434c0-2.418.733-4.392 2.2-5.921 1.902-1.963 4.96-2.945 9.177-2.945h1.395c4.505 0 7.698 1.013 9.579 3.038a7.422 7.422 0 0 1 1.658 3.007c.32 1.137.48 2.397.48 3.782v.651H52.866c.186.971.62 1.705 1.302 2.201s1.715.744 3.1.744c1.136 0 2.035-.186 2.697-.558.268-.165.444-.32.527-.465l.186-.31h8.37zm-12.214-7.719c-1.24 0-2.155.217-2.744.651-.589.434-.976 1.095-1.162 1.984h7.719c0-.785-.248-1.395-.744-1.829-.6-.537-1.623-.806-3.07-.806zm36.337-3.937V46h-7.967v-5.766c-1.406.227-3.07.341-4.991.341-1.86 0-3.4-.145-4.62-.434-1.219-.29-2.2-.754-2.944-1.395-.744-.62-1.282-1.431-1.612-2.434-.331-1.002-.496-2.257-.496-3.766v-3.844h7.967v3.255c0 1.323.3 2.211.899 2.666.289.248.682.418 1.178.512.496.093 1.126.139 1.89.139.993 0 1.902-.072 2.729-.217v-6.355h7.967zM109.07 46l-5.55-7.564V46h-7.966V28.702h7.967v6.479l5.053-6.479h8.742l-6.448 7.75L118.09 46h-9.021zm22.975-2.17c-.434.537-1.095 1.033-1.984 1.488-1.364.703-2.945 1.054-4.743 1.054h-.527c-2.314 0-4.112-.527-5.394-1.581-1.178-.971-1.767-2.304-1.767-3.999v-.155c0-.827.14-1.545.419-2.154.279-.61.728-1.122 1.348-1.535 1.2-.847 3.307-1.374 6.324-1.581l4.898-.279c.455-.041.77-.14.946-.294.176-.156.263-.388.263-.698v-.031c0-.434-.165-.765-.496-.992-.434-.269-1.23-.403-2.387-.403h-.124c-1.178 0-1.994.207-2.449.62-.31.29-.465.62-.465.992h-7.843v-.031c0-1.612.548-2.904 1.643-3.875 1.612-1.405 4.475-2.108 8.587-2.108h1.054c4.237 0 7.14.661 8.711 1.984.62.537 1.039 1.137 1.256 1.798.217.661.325 1.405.325 2.232v5.332c0 .33.062.563.186.698.124.134.341.201.651.201h.961V46h-6.448c-.785 0-1.446-.248-1.984-.744-.475-.413-.795-.889-.96-1.426zm-4.154-1.798c1.282 0 2.294-.351 3.038-1.054.6-.579.9-1.26.9-2.046v-.837a71.89 71.89 0 0 1-3.132.558c-1.24.207-2.087.434-2.542.682-.434.248-.65.63-.65 1.147v.062c0 .455.201.816.604 1.085.403.269.997.403 1.782.403z"/>
        <path fill="url(#a)" d="M176.737 16.5c0 4.223-1.61 8.445-4.833 11.667-6.443 6.444-16.89 6.444-23.334 0-6.444-6.443-6.444-16.89 0-23.334A16.448 16.448 0 0 1 160.237 0h15.024c.815 0 1.476.66 1.476 1.476V16.5zm-6 0V7.402c0-.774-.628-1.402-1.402-1.402h-9.098a10.467 10.467 0 0 0-7.425 3.075c-4.1 4.1-4.1 10.75 0 14.85s10.75 4.1 14.85 0a10.467 10.467 0 0 0 3.075-7.425z"/>
    </g>
</svg>
