<svg xmlns="http://www.w3.org/2000/svg" width="32" height="32" viewBox="0 0 32 32">
    <path fill="#47525B" fill-rule="nonzero" d="M16 2c7.719 0 14 6.281 14 14s-6.281 14-14 14S2 23.719 2 16 8.281 2 16 2zm0-2C7.164 0 0 7.164 0 16s7.164 16 16 16 16-7.164 16-16S24.836 0 16 0zm8.92 21.35l-.09-.274c-.21-.629-.906-1.285-1.547-1.46l-2.365-.647c-.64-.174-1.555.06-2.025.531l-.856.855a9.086 9.086 0 0 1-6.388-6.39l.855-.856c.469-.468.703-1.382.53-2.025l-.645-2.365c-.174-.64-.834-1.336-1.463-1.547l-.27-.09c-.63-.21-1.531.002-2 .473l-1.281 1.28c-.229.227-.375.878-.375.88a15.137 15.137 0 0 0 4.426 10.86 15.12 15.12 0 0 0 10.822 4.423c.022 0 .691-.143.92-.371l1.281-1.281c.469-.467.68-1.367.47-1.996z"/>
</svg>
